<svg width="32" height="32" viewBox="0 0 32 32" fill="none" xmlns="http://www.w3.org/2000/svg">
<path d="M21.895 21.8036C21.9791 21.8036 22.063 21.5981 22.063 21.3122L22.5076 13.5921C22.5076 11.8355 23.9413 9.88358 26.0164 9.31764C25.8869 8.93111 24.4482 5.00654 24.0752 3.90655C23.6834 2.74999 22.5636 0 21.1918 0C21.1815 0 21.1712 0.000761878 21.1604 0.00230634C21.0577 0.0185129 20.9558 0.110769 20.8574 0.267028C20.1409 1.46856 19.8202 6.47716 19.8202 10.2287L19.9882 14.7297C20.6046 16.7282 21.5898 21.3164 21.6992 21.5977C21.6992 21.5977 21.8111 21.8036 21.895 21.8036Z" fill="url(#paint0_linear_15271_110958)"/>
<path d="M30.0538 9H26.2302C23.8709 9 22.003 11.2308 22.003 13.3333V21.2789C22.003 21.564 21.9303 21.7693 21.8576 21.7693C21.7847 21.7693 21.6877 21.564 21.6877 21.564C21.6877 21.564 21.8333 22 22.0273 22C22.0273 22 24.9896 22 26.1876 22C27.3855 22 31 20.7435 31 16.8205V10.1336C31 9.28204 30.539 9 30.0538 9Z" fill="url(#paint1_linear_15271_110958)"/>
<path d="M2.67406 32H13.6299C18.3109 32 20.0042 27.9314 20.0042 24.3868V9.93448C20.0042 5.766 20.3776 0 21.2241 0H14.5638C13.0322 0 11.7125 1.64742 10.2186 4.96724C8.72462 8.28706 1.52644 28.7124 1.20499 29.6786C0.682107 31.2512 1.1552 32 2.67406 32Z" fill="url(#paint2_linear_15271_110958)"/>
<defs>
<linearGradient id="paint0_linear_15271_110958" x1="22.8575" y1="22" x2="22.8575" y2="1.57649" gradientUnits="userSpaceOnUse">
<stop offset="0.02" stop-color="#201BA6"/>
<stop offset="0.64" stop-color="#2D29C7"/>
<stop offset="1" stop-color="#201BA6"/>
</linearGradient>
<linearGradient id="paint1_linear_15271_110958" x1="26.4999" y1="21.8907" x2="26.4999" y2="9.14383" gradientUnits="userSpaceOnUse">
<stop stop-color="#3530C3"/>
<stop offset="0.5" stop-color="#6D71D1"/>
<stop offset="0.966555" stop-color="#C0BFF5"/>
<stop offset="1" stop-color="#E3E4FF"/>
</linearGradient>
<linearGradient id="paint2_linear_15271_110958" x1="9.26967" y1="31.9686" x2="9.26967" y2="-0.339634" gradientUnits="userSpaceOnUse">
<stop stop-color="#302EC9"/>
<stop offset="0.445601" stop-color="#302EC9"/>
<stop offset="0.949145" stop-color="#CACAFB"/>
<stop offset="1" stop-color="#7F7EAF"/>
</linearGradient>
</defs>
</svg>
